<?xml version="1.0" encoding="utf-8"?>
<!-- Generator: Adobe Illustrator 19.0.0, SVG Export Plug-In . SVG Version: 6.00 Build 0)  -->
<svg version="1.1" xmlns="http://www.w3.org/2000/svg" xmlns:xlink="http://www.w3.org/1999/xlink" x="0px" y="0px"
	 viewBox="0 0 640 480" style="enable-background:new 0 0 640 480;" xml:space="preserve">
<style type="text/css">
	.st0{fill:#333333;}
	.st1{display:none;}
	.st2{display:inline;}
	.st3{fill:none;stroke:#333333;stroke-width:25;stroke-miterlimit:10;}
</style>
<g id="Flächen">
	<path id="XMLID_60_" class="st0" d="M497.2,178h-31.9l17-44.2c22.3-4.2,39.3-23.8,39.3-47.3c0-26.6-21.6-48.2-48.2-48.2
		c-26.6,0-48.2,21.6-48.2,48.2c0,20.6,13,38.2,31.2,45.1L438.5,178H332v-44.8c20.8-5.3,36.3-24.2,36.3-46.7
		c0-26.6-21.6-48.2-48.2-48.2c-26.6,0-48.2,21.6-48.2,48.2c0,22,14.9,40.6,35.1,46.3V178h-95v-45.4c20.3-5.7,35.3-24.3,35.3-46.4
		c0-26.6-21.6-48.2-48.2-48.2c-26.6,0-48.2,21.6-48.2,48.2c0,22.4,15.3,41.2,36.1,46.6V178h-44c-13.5,0-25,11-25,24.5v76
		c0,13.5,11.5,24.5,25,24.5h31.3l-16.8,43.5c-22.3,4.2-39.3,23.8-39.3,47.3c0,26.6,21.6,48.2,48.2,48.2s48.2-21.6,48.2-48.2
		c0-20.6-13-38.2-31.2-45.1l17.6-45.8H307v44.2c-20.2,5.7-35.1,24.3-35.1,46.3c0,26.6,21.6,48.2,48.2,48.2
		c26.6,0,48.2-21.6,48.2-48.2c0-22.5-15.4-41.4-36.3-46.7V303h98v43.9c-20.7,5.4-36.1,24.2-36.1,46.6c0,26.6,21.6,48.2,48.2,48.2
		c26.6,0,48.2-21.6,48.2-48.2c0-22.1-15-40.7-35.3-46.4V303h42.2c13.5,0,24.8-11,24.8-24.5v-76C522,189,510.7,178,497.2,178z
		 M473.4,63.3c12.8,0,23.2,10.4,23.2,23.2s-10.4,23.2-23.2,23.2c-12.8,0-23.2-10.4-23.2-23.2S460.7,63.3,473.4,63.3z M296.9,86.5
		c0-12.8,10.4-23.2,23.2-23.2c12.8,0,23.2,10.4,23.2,23.2s-10.4,23.2-23.2,23.2C307.3,109.7,296.9,99.3,296.9,86.5z M175.9,86.2
		c0-12.8,10.4-23.2,23.2-23.2c12.8,0,23.2,10.4,23.2,23.2c0,12.8-10.4,23.2-23.2,23.2C186.3,109.3,175.9,98.9,175.9,86.2z
		 M166.4,417c-12.8,0-23.2-10.4-23.2-23.2c0-12.8,10.4-23.2,23.2-23.2s23.2,10.4,23.2,23.2C189.6,406.6,179.2,417,166.4,417z
		 M343.3,393.5c0,12.8-10.4,23.2-23.2,23.2c-12.8,0-23.2-10.4-23.2-23.2s10.4-23.2,23.2-23.2C332.9,370.3,343.3,380.7,343.3,393.5z
		 M465.3,393.5c0,12.8-10.4,23.2-23.2,23.2c-12.8,0-23.2-10.4-23.2-23.2s10.4-23.2,23.2-23.2C454.9,370.3,465.3,380.7,465.3,393.5z
		 M497,278H143v-75h354V278z"/>
</g>
<g id="Linien" class="st1">
	<g id="XMLID_15_" class="st2">
		<circle id="XMLID_2_" class="st3" cx="473.4" cy="86.5" r="35.7"/>
		<path id="XMLID_3_" class="st3" d="M143,290.5h354.3c6.6,0,12-5.4,12-12v-76c0-6.6-5.4-12-12-12H143c-6.6,0-12,5.4-12,12v76
			C131,285.1,136.4,290.5,143,290.5z"/>
		<circle id="XMLID_4_" class="st3" cx="320.1" cy="86.5" r="35.7"/>
		<circle id="XMLID_5_" class="st3" cx="320.1" cy="393.5" r="35.7"/>
		<line id="XMLID_6_" class="st3" x1="319.5" y1="123" x2="319.5" y2="191"/>
		<line id="XMLID_7_" class="st3" x1="319.5" y1="358" x2="319.5" y2="291"/>
		<line id="XMLID_8_" class="st3" x1="473.4" y1="122.2" x2="447.1" y2="190.5"/>
		<line id="XMLID_9_" class="st3" x1="442.5" y1="291" x2="442.5" y2="358"/>
		<circle id="XMLID_10_" class="st3" cx="442.1" cy="393.5" r="35.7"/>
		<line id="XMLID_12_" class="st3" x1="199.5" y1="190" x2="199.5" y2="123"/>
		<circle id="XMLID_11_" class="st3" cx="199.1" cy="86.2" r="35.7"/>
		<circle id="XMLID_14_" class="st3" cx="166.4" cy="393.8" r="35.7"/>
		<line id="XMLID_13_" class="st3" x1="166.4" y1="358.2" x2="192.8" y2="289.8"/>
	</g>
</g>
<g id="Hilfslinien">
</g>
</svg>
