<?xml version="1.0" encoding="utf-8"?>
<!-- Generator: Adobe Illustrator 19.0.0, SVG Export Plug-In . SVG Version: 6.00 Build 0)  -->
<svg version="1.1" xmlns="http://www.w3.org/2000/svg" xmlns:xlink="http://www.w3.org/1999/xlink" x="0px" y="0px"
	 viewBox="0 0 640 480" style="enable-background:new 0 0 640 480;" xml:space="preserve">
<style type="text/css">
	.st0{fill:#333333;}
	.st1{display:none;}
	.st2{display:inline;fill:none;stroke:#333333;stroke-width:25;stroke-linecap:round;stroke-miterlimit:10;}
	.st3{display:inline;fill:none;stroke:#333333;stroke-width:27;stroke-linecap:round;stroke-miterlimit:10;}
</style>
<g id="Flächen">
	<path id="XMLID_13_" class="st0" d="M518.7,60.4c5.3-5.3,5.3-13.8,0-19.1c-5.3-5.3-13.8-5.3-19.1,0l-46.9,46.9
		C417.2,57.2,370.7,38.4,320,38.4c-111.2,0-201.6,90.5-201.6,201.6c0,50.7,18.8,97.2,49.9,132.6l-46.9,46.9
		c-5.3,5.3-5.3,13.8,0,19.1c2.6,2.6,6.1,4,9.5,4s6.9-1.3,9.5-4l46.9-46.9c35.5,31.1,81.9,49.9,132.6,49.9
		c111.2,0,201.6-90.5,201.6-201.6c0-50.7-18.8-97.2-49.9-132.6L518.7,60.4z M143.4,240c0-97.4,79.2-176.6,176.6-176.6
		c43.8,0,84,16.1,114.9,42.6L186,354.9C159.4,324,143.4,283.8,143.4,240z M496.6,240c0,97.4-79.2,176.6-176.6,176.6
		c-43.8,0-84-16.1-114.9-42.6L454,125.1C480.6,156,496.6,196.2,496.6,240z"/>
</g>
<g id="Linien" class="st1">
	<circle id="XMLID_2_" class="st2" cx="320" cy="240" r="189.1"/>
	<line id="XMLID_3_" class="st3" x1="130.9" y1="429.1" x2="509.1" y2="50.9"/>
</g>
<g id="Hilfslinien">
</g>
</svg>
