<?xml version="1.0" encoding="utf-8"?>
<!-- Generator: Adobe Illustrator 19.0.0, SVG Export Plug-In . SVG Version: 6.00 Build 0)  -->
<svg version="1.1" xmlns="http://www.w3.org/2000/svg" xmlns:xlink="http://www.w3.org/1999/xlink" x="0px" y="0px"
	 viewBox="0 0 640 480" style="enable-background:new 0 0 640 480;" xml:space="preserve">
<style type="text/css">
	.st0{fill:#333333;}
	.st1{display:none;}
	.st2{display:inline;}
	.st3{fill:none;stroke:#333333;stroke-width:25;stroke-linecap:round;stroke-miterlimit:10;}
	.st4{fill:none;stroke:#333333;stroke-width:25;stroke-linecap:round;stroke-linejoin:round;stroke-miterlimit:10;}
	.st5{fill:none;stroke:#333333;stroke-width:25;stroke-linejoin:round;stroke-miterlimit:10;}
	.st6{display:inline;fill:none;stroke:#333333;stroke-width:20;stroke-miterlimit:10;}
	.st7{fill:none;stroke:#333333;stroke-width:20;stroke-miterlimit:10;}
</style>
<g id="Flächen">
	<g id="XMLID_30_">
		<path id="XMLID_61_" class="st0" d="M570.7,256.8c-1.6-3-4.4-5.2-7.6-6.1l-49.3-14l7.1-67.8c0.4-3.5-0.8-7.1-3.1-9.7
			c-2.4-2.6-5.7-4.2-9.3-4.2H466V96.5c0-6.9-5.8-12.5-12.7-12.5h-70c-6.9,0-12.3,5.6-12.3,12.5V155h-26v-48c0-6.9-5.9-12-12.8-12
			H243V63h52.4c6.9,0,12.5-5.6,12.5-12.5S302.3,38,295.4,38h-129c-6.9,0-12.5,5.6-12.5,12.5S159.5,63,166.4,63H218v32h-87.7
			c-6.9,0-12.3,5.1-12.3,12v245.5c0,6.9,5.4,12.5,12.3,12.5h11.2l-22.9,60.5c-2.5,6.5,0.8,13.7,7.2,16.1c1.5,0.6,3,0.8,4.4,0.8
			c5,0,9.8-2.8,11.7-7.8l0.3-0.6h176.8c1.9,4,6.5,8,11.7,8h174.9c5.4,0,10.2-3.7,11.9-8.9l54-166.5
			C572.6,263.4,572.3,259.8,570.7,256.8z M396,109h45v46h-45V109z M494.6,180l-5.2,49.7l-67.8-19.2c-2.2-0.6-4.6-0.6-6.8,0
			l-67.3,19.1l-2.5-24.9V180H494.6z M339.3,415l-16.2-50h9.1c6.9,0,12.8-5.5,12.8-12.5v-96.2l60-17.2V417h-64.9
			C339.8,416,339.6,415.6,339.3,415z M143,340v-97.3l89.8-7.1l87.2,7V340h-14.2c0,0-0.1,0-0.1,0H143z M320,205.4
			C320,205.4,320,205.4,320,205.4v17.1l-79-6.3v-47.3l79-6.3V205.4z M221,216.4l-78,6.2v-60.1l78,6.2V216.4z M320,120v22.5l-87.2,7
			l-89.8-7.1V120H320z M168.3,365h128.5l14.1,44H151.8L168.3,365z M496.6,417H430V239l113.6,32.4L496.6,417z"/>
		<path id="XMLID_72_" class="st0" d="M182.4,270.2c-17.3,0-31.4,14.1-31.4,31.4s14.1,31.4,31.4,31.4s31.4-14.1,31.4-31.4
			S199.7,270.2,182.4,270.2z M182.4,312.9c-6.3,0-11.4-5.1-11.4-11.4s5.1-11.4,11.4-11.4s11.4,5.1,11.4,11.4
			S188.6,312.9,182.4,312.9z"/>
		<path id="XMLID_75_" class="st0" d="M311.8,301.5c0-17.3-14.1-31.4-31.4-31.4S249,284.2,249,301.5s14.1,31.4,31.4,31.4
			S311.8,318.9,311.8,301.5z M280.4,312.9c-6.3,0-11.4-5.1-11.4-11.4s5.1-11.4,11.4-11.4s11.4,5.1,11.4,11.4
			S286.6,312.9,280.4,312.9z"/>
	</g>
</g>
<g id="Linien" class="st1">
	<g id="XMLID_16_" class="st2">
		<polyline id="XMLID_53_" class="st3" points="130.9,429.4 134.5,419.9 160.2,352 		"/>
		<polyline id="XMLID_52_" class="st3" points="136,420.5 328.7,420.5 329,420.5 		"/>
		<polyline id="XMLID_51_" class="st4" points="418.4,229 418.4,283.4 418.4,428 		"/>
		<line id="XMLID_10_" class="st4" x1="332.8" y1="204.8" x2="337" y2="245.1"/>
		<polyline id="XMLID_2_" class="st4" points="500.9,245.3 509,167 453.9,167 383.9,167 332.8,167 		"/>
		<polyline id="XMLID_49_" class="st4" points="453.9,167 453.9,96 383.9,96 383.9,167 		"/>
		<polyline id="XMLID_1_" class="st4" points="332.8,246.4 337,245.1 418.8,222 500.9,245.3 560.3,262.1 506.2,428.5 418.4,428.5 
			331.3,428.5 328.7,420.5 306.5,352 		"/>
		<polygon id="XMLID_47_" class="st5" points="332.8,167 332.8,106.5 130.9,106.5 130.9,352 160.2,352 306.5,352 332.8,352 
			332.8,246.4 332.8,204.8 		"/>
		<line id="XMLID_46_" class="st4" x1="231.5" y1="106" x2="231.5" y2="50"/>
		<line id="XMLID_45_" class="st4" x1="167" y1="49.5" x2="296" y2="49.5"/>
	</g>
	<polyline id="XMLID_14_" class="st6" points="132,233 233.1,225 333,233 	"/>
	<polyline id="XMLID_18_" class="st6" points="132,151 233.1,159 333,151 	"/>
	<line id="XMLID_17_" class="st6" x1="232" y1="161" x2="232" y2="225"/>
	<g id="XMLID_15_" class="st2">
		<circle id="XMLID_11_" class="st7" cx="182.9" cy="301" r="21.4"/>
		<circle id="XMLID_13_" class="st7" cx="280.9" cy="301" r="21.4"/>
	</g>
</g>
<g id="Hilfslinien">
</g>
</svg>
