<?xml version="1.0" encoding="utf-8"?>
<!-- Generator: Adobe Illustrator 19.0.0, SVG Export Plug-In . SVG Version: 6.00 Build 0)  -->
<svg version="1.1" xmlns="http://www.w3.org/2000/svg" xmlns:xlink="http://www.w3.org/1999/xlink" x="0px" y="0px"
	 viewBox="0 0 640 480" style="enable-background:new 0 0 640 480;" xml:space="preserve">
<style type="text/css">
	.st0{fill:#333333;}
	.st1{display:none;}
	.st2{display:inline;}
	.st3{fill:none;stroke:#333333;stroke-width:25;stroke-linecap:round;stroke-linejoin:round;stroke-miterlimit:10;}
	.st4{fill:none;stroke:#333333;stroke-width:20;stroke-linecap:round;stroke-linejoin:round;stroke-miterlimit:10;}
</style>
<g id="Flächen">
	<path id="XMLID_42_" class="st0" d="M489,49c-13.5,0-25,8.8-29,21h-42.8l-16.9-18.1c-2.4-2.5-5.7-3.9-9.1-3.9h-20.4
		c-2.5,0-4.9,0.7-6.9,2.1l-67,44.8l-54.6-19.1c-1.3-0.5-2.7-0.7-4.1-0.7l-45.6-0.2c-2.4,0-4.8,0.7-6.8,2l-45,29.1
		c-3.6,2.3-5.7,6.3-5.7,10.5v13.4c0,2.7,0.9,5.3,2.5,7.5l10.3,13.8c1.4,1.9,3.3,3.3,5.5,4.2l29,11.3l6.7,33.5v67.4
		c0,3.9,1.8,7.6,4.9,9.9l32,24.5L207.4,320H180c-4-12.2-15.5-21-29-21c-16.8,0-30.5,13.7-30.5,30.5S134.2,360,151,360
		c13.1,0,24.3-8.3,28.6-20H211c0.1,0,0.2,0,0.2,0c0.1,0,0.2,0,0.3,0c2.5,0,5.1-1,7-2.9l23.4-23l18.6,14.3c2.2,1.7,4.9,2.6,7.6,2.6
		H285v29.8c0,3.6,1.5,7,4.2,9.4l12.2,10.8l-10,10H180c-4-12.2-15.5-21-29-21c-16.8,0-30.5,13.7-30.5,30.5S134.2,431,151,431
		c13.1,0,24.3-8.3,28.6-20H295c0.1,0,0.2,0,0.2,0c0.1,0,0.2,0,0.3,0c2.6,0,5.1-1,7.1-2.9l13.8-13.8l17.7,15.6c2.3,2,5.2,3.1,8.3,3.1
		h63.4c4.5,0,8.6-2.4,10.9-6.3l20-35.1l21.7-13.8c3.6-2.3,5.8-6.3,5.8-10.5v-97.1c0-1.4-0.2-2.8-0.7-4.2L453,217.1v-14.5
		c0-3.1-1.1-6.1-3.2-8.4l-36.8-41v-6l19.9-22.7c2-2.3,3.1-5.2,3.1-8.2V94.9c0-1.7-0.4-3.4-1-4.9h25.4c4.3,11.7,15.5,20,28.6,20
		c16.8,0,30.5-13.7,30.5-30.5S505.8,49,489,49z M151,340c-5.8,0-10.5-4.7-10.5-10.5S145.2,319,151,319c5.1,0,9.4,3.7,10.3,8.6
		c-0.2,0.8-0.3,1.6-0.3,2.4c0,0.7,0.1,1.3,0.2,2C160.1,336.6,155.9,340,151,340z M151,411c-5.8,0-10.5-4.7-10.5-10.5
		S145.2,390,151,390c5.1,0,9.4,3.7,10.3,8.6c-0.2,0.8-0.3,1.6-0.3,2.4c0,0.7,0.1,1.3,0.2,2C160.1,407.6,155.9,411,151,411z
		 M428,207.3v11.9c0,1.4,0.2,2.8,0.7,4.2l10.3,28.9v88.1l-18.5,11.8c-1.7,1.1-3.1,2.6-4.1,4.4L398.5,388h-51.4L310,355.2V325
		c0-1.9-0.4-3.7-1.2-5.4l-3.1-6.5c-2.1-4.4-6.5-7.1-11.3-7.1h-22L214,261.3v-62.5c0-0.8-0.1-1.6-0.2-2.4l-8.3-41.4
		c-0.8-4.2-3.8-7.7-7.7-9.2l-32.1-12.5l-5.7-7.6v-2.4l36.2-23.4L236,100l58.5,20.5c3.7,1.3,7.8,0.8,11.1-1.4l69-46.1h11.2L411,99.9
		v11.7l-19.9,22.7c-2,2.3-3.1,5.2-3.1,8.2V158c0,3.1,1.1,6.1,3.2,8.4L428,207.3z M489,90c-5.8,0-10.5-4.7-10.5-10.5S483.2,69,489,69
		s10.5,4.7,10.5,10.5S494.8,90,489,90z"/>
</g>
<g id="Linien" class="st1">
	<g id="XMLID_11_" class="st2">
		<polygon id="XMLID_5_" class="st3" points="147.5,116.4 192.3,87.4 237.8,87.5 298.2,108.7 370.3,60.5 390.7,60.5 423.5,94.9 
			423.5,116.3 400.5,142.6 400.5,158 440.5,202.5 440.5,219.2 451.5,250.2 451.5,304.6 451.5,332.4 451.5,347.2 427,362.7 
			405.2,400.5 341.8,400.5 297.5,360.8 297.5,325 293.9,318.5 267.6,318.5 201.5,267.5 201.5,198.8 193,157.4 157.7,143.6 
			147.5,129.8 		"/>
		<circle id="XMLID_3_" class="st4" cx="150.5" cy="329.5" r="20.5"/>
		<circle id="XMLID_2_" class="st4" cx="150.5" cy="400.5" r="20.5"/>
		<line id="XMLID_4_" class="st4" x1="171" y1="330" x2="211" y2="330"/>
		<line id="XMLID_6_" class="st4" x1="211" y1="330" x2="239" y2="302.5"/>
		<line id="XMLID_7_" class="st4" x1="171" y1="401" x2="295" y2="401"/>
		<line id="XMLID_8_" class="st4" x1="295" y1="401" x2="315.2" y2="380.8"/>
		<circle id="XMLID_9_" class="st4" cx="488.5" cy="79.5" r="20.5"/>
		<line id="XMLID_10_" class="st4" x1="468" y1="80" x2="409" y2="80"/>
	</g>
</g>
<g id="Hilfslinien">
</g>
</svg>
